<mxfile host="app.diagrams.net" modified="2024-02-12T09:30:07.810Z" agent="Mozilla/5.0 (Windows NT 10.0; Win64; x64) AppleWebKit/537.36 (KHTML, like Gecko) Chrome/121.0.0.0 Safari/537.36" etag="-TJnGojoeeB31oj8378G" version="23.1.2" type="github">
  <diagram name="Salesforce Object Connections" id="9f46799a-70d6-7492-0946-bef42562c5a5">
    <mxGraphModel dx="1134" dy="637" grid="0" gridSize="10" guides="1" tooltips="1" connect="1" arrows="1" fold="1" page="1" pageScale="1" pageWidth="1100" pageHeight="850" background="none" math="0" shadow="0">
      <root>
        <mxCell id="0" />
        <mxCell id="1" parent="0" />
        <mxCell id="78961159f06e98e8-123" style="html=1;labelBackgroundColor=none;startFill=0;startSize=8;endArrow=open;endFill=0;endSize=16;fontFamily=Verdana;fontSize=12;dashed=1;entryX=0;entryY=0.5;entryDx=0;entryDy=0;edgeStyle=orthogonalEdgeStyle;strokeWidth=3;" parent="1" source="78961159f06e98e8-17" target="78961159f06e98e8-75" edge="1">
          <mxGeometry relative="1" as="geometry">
            <mxPoint x="300" y="550" as="targetPoint" />
          </mxGeometry>
        </mxCell>
        <mxCell id="78961159f06e98e8-17" value="Case Object" style="swimlane;html=1;fontStyle=1;align=center;verticalAlign=top;childLayout=stackLayout;horizontal=1;startSize=26;horizontalStack=0;resizeParent=1;resizeLast=0;collapsible=1;marginBottom=0;swimlaneFillColor=#ffffff;rounded=0;shadow=0;comic=0;labelBackgroundColor=none;strokeWidth=1;fillColor=#dae8fc;fontFamily=Verdana;fontSize=12;strokeColor=#6c8ebf;" parent="1" vertex="1">
          <mxGeometry x="90" y="83" width="173" height="187" as="geometry" />
        </mxCell>
        <mxCell id="78961159f06e98e8-21" value="Id" style="text;html=1;strokeColor=none;fillColor=none;align=left;verticalAlign=top;spacingLeft=4;spacingRight=4;whiteSpace=wrap;overflow=hidden;rotatable=0;points=[[0,0.5],[1,0.5]];portConstraint=eastwest;" parent="78961159f06e98e8-17" vertex="1">
          <mxGeometry y="26" width="173" height="26" as="geometry" />
        </mxCell>
        <mxCell id="78961159f06e98e8-23" value="Case Number" style="text;html=1;strokeColor=none;fillColor=none;align=left;verticalAlign=top;spacingLeft=4;spacingRight=4;whiteSpace=wrap;overflow=hidden;rotatable=0;points=[[0,0.5],[1,0.5]];portConstraint=eastwest;" parent="78961159f06e98e8-17" vertex="1">
          <mxGeometry y="52" width="173" height="26" as="geometry" />
        </mxCell>
        <mxCell id="78961159f06e98e8-25" value="Subject" style="text;html=1;strokeColor=none;fillColor=none;align=left;verticalAlign=top;spacingLeft=4;spacingRight=4;whiteSpace=wrap;overflow=hidden;rotatable=0;points=[[0,0.5],[1,0.5]];portConstraint=eastwest;" parent="78961159f06e98e8-17" vertex="1">
          <mxGeometry y="78" width="173" height="26" as="geometry" />
        </mxCell>
        <mxCell id="78961159f06e98e8-26" value="Description" style="text;html=1;strokeColor=none;fillColor=none;align=left;verticalAlign=top;spacingLeft=4;spacingRight=4;whiteSpace=wrap;overflow=hidden;rotatable=0;points=[[0,0.5],[1,0.5]];portConstraint=eastwest;" parent="78961159f06e98e8-17" vertex="1">
          <mxGeometry y="104" width="173" height="26" as="geometry" />
        </mxCell>
        <mxCell id="78961159f06e98e8-24" value="Other Fields" style="text;html=1;strokeColor=none;fillColor=none;align=left;verticalAlign=top;spacingLeft=4;spacingRight=4;whiteSpace=wrap;overflow=hidden;rotatable=0;points=[[0,0.5],[1,0.5]];portConstraint=eastwest;" parent="78961159f06e98e8-17" vertex="1">
          <mxGeometry y="130" width="173" height="26" as="geometry" />
        </mxCell>
        <mxCell id="78961159f06e98e8-19" value="" style="line;html=1;strokeWidth=1;fillColor=none;align=left;verticalAlign=middle;spacingTop=-1;spacingLeft=3;spacingRight=3;rotatable=0;labelPosition=right;points=[];portConstraint=eastwest;" parent="78961159f06e98e8-17" vertex="1">
          <mxGeometry y="156" width="173" height="8" as="geometry" />
        </mxCell>
        <mxCell id="78961159f06e98e8-30" value="Case Comment Object" style="swimlane;html=1;fontStyle=1;align=center;verticalAlign=top;childLayout=stackLayout;horizontal=1;startSize=26;horizontalStack=0;resizeParent=1;resizeLast=0;collapsible=1;marginBottom=0;swimlaneFillColor=#ffffff;rounded=0;shadow=0;comic=0;labelBackgroundColor=none;strokeWidth=1;fillColor=#dae8fc;fontFamily=Verdana;fontSize=12;strokeColor=#6c8ebf;" parent="1" vertex="1">
          <mxGeometry x="840" y="58" width="160" height="170" as="geometry" />
        </mxCell>
        <mxCell id="78961159f06e98e8-31" value="Id" style="text;html=1;strokeColor=none;fillColor=none;align=left;verticalAlign=top;spacingLeft=4;spacingRight=4;whiteSpace=wrap;overflow=hidden;rotatable=0;points=[[0,0.5],[1,0.5]];portConstraint=eastwest;" parent="78961159f06e98e8-30" vertex="1">
          <mxGeometry y="26" width="160" height="26" as="geometry" />
        </mxCell>
        <mxCell id="78961159f06e98e8-32" value="parent Id" style="text;html=1;strokeColor=none;fillColor=none;align=left;verticalAlign=top;spacingLeft=4;spacingRight=4;whiteSpace=wrap;overflow=hidden;rotatable=0;points=[[0,0.5],[1,0.5]];portConstraint=eastwest;" parent="78961159f06e98e8-30" vertex="1">
          <mxGeometry y="52" width="160" height="26" as="geometry" />
        </mxCell>
        <mxCell id="78961159f06e98e8-33" value="Comment Body" style="text;html=1;strokeColor=none;fillColor=none;align=left;verticalAlign=top;spacingLeft=4;spacingRight=4;whiteSpace=wrap;overflow=hidden;rotatable=0;points=[[0,0.5],[1,0.5]];portConstraint=eastwest;" parent="78961159f06e98e8-30" vertex="1">
          <mxGeometry y="78" width="160" height="26" as="geometry" />
        </mxCell>
        <mxCell id="78961159f06e98e8-34" value="Other fields" style="text;html=1;strokeColor=none;fillColor=none;align=left;verticalAlign=top;spacingLeft=4;spacingRight=4;whiteSpace=wrap;overflow=hidden;rotatable=0;points=[[0,0.5],[1,0.5]];portConstraint=eastwest;" parent="78961159f06e98e8-30" vertex="1">
          <mxGeometry y="104" width="160" height="26" as="geometry" />
        </mxCell>
        <mxCell id="78961159f06e98e8-38" value="" style="line;html=1;strokeWidth=1;fillColor=none;align=left;verticalAlign=middle;spacingTop=-1;spacingLeft=3;spacingRight=3;rotatable=0;labelPosition=right;points=[];portConstraint=eastwest;" parent="78961159f06e98e8-30" vertex="1">
          <mxGeometry y="130" width="160" height="8" as="geometry" />
        </mxCell>
        <mxCell id="78961159f06e98e8-69" value="Custom Object for Sf Slack Sync" style="swimlane;html=1;fontStyle=1;align=center;verticalAlign=top;childLayout=stackLayout;horizontal=1;startSize=26;horizontalStack=0;resizeParent=1;resizeLast=0;collapsible=1;marginBottom=0;swimlaneFillColor=#ffffff;rounded=0;shadow=0;comic=0;labelBackgroundColor=none;strokeWidth=1;fillColor=#ffe6cc;fontFamily=Verdana;fontSize=12;strokeColor=#d79b00;" parent="1" vertex="1">
          <mxGeometry x="380" y="290" width="300" height="304" as="geometry" />
        </mxCell>
        <mxCell id="78961159f06e98e8-70" value="Case Id" style="text;html=1;strokeColor=none;fillColor=none;align=left;verticalAlign=top;spacingLeft=4;spacingRight=4;whiteSpace=wrap;overflow=hidden;rotatable=0;points=[[0,0.5],[1,0.5]];portConstraint=eastwest;" parent="78961159f06e98e8-69" vertex="1">
          <mxGeometry y="26" width="300" height="26" as="geometry" />
        </mxCell>
        <mxCell id="78961159f06e98e8-71" value="Case Number" style="text;html=1;strokeColor=none;fillColor=none;align=left;verticalAlign=top;spacingLeft=4;spacingRight=4;whiteSpace=wrap;overflow=hidden;rotatable=0;points=[[0,0.5],[1,0.5]];portConstraint=eastwest;" parent="78961159f06e98e8-69" vertex="1">
          <mxGeometry y="52" width="300" height="26" as="geometry" />
        </mxCell>
        <mxCell id="78961159f06e98e8-72" value="Comment Id" style="text;html=1;strokeColor=none;fillColor=none;align=left;verticalAlign=top;spacingLeft=4;spacingRight=4;whiteSpace=wrap;overflow=hidden;rotatable=0;points=[[0,0.5],[1,0.5]];portConstraint=eastwest;" parent="78961159f06e98e8-69" vertex="1">
          <mxGeometry y="78" width="300" height="26" as="geometry" />
        </mxCell>
        <mxCell id="78961159f06e98e8-74" value="Comment" style="text;html=1;strokeColor=none;fillColor=none;align=left;verticalAlign=top;spacingLeft=4;spacingRight=4;whiteSpace=wrap;overflow=hidden;rotatable=0;points=[[0,0.5],[1,0.5]];portConstraint=eastwest;" parent="78961159f06e98e8-69" vertex="1">
          <mxGeometry y="104" width="300" height="26" as="geometry" />
        </mxCell>
        <mxCell id="78961159f06e98e8-75" value="Slack Thread event_ts" style="text;html=1;strokeColor=none;fillColor=none;align=left;verticalAlign=top;spacingLeft=4;spacingRight=4;whiteSpace=wrap;overflow=hidden;rotatable=0;points=[[0,0.5],[1,0.5]];portConstraint=eastwest;" parent="78961159f06e98e8-69" vertex="1">
          <mxGeometry y="130" width="300" height="26" as="geometry" />
        </mxCell>
        <mxCell id="78961159f06e98e8-76" value="Slack Thread&amp;nbsp;thread_ts" style="text;html=1;strokeColor=none;fillColor=none;align=left;verticalAlign=top;spacingLeft=4;spacingRight=4;whiteSpace=wrap;overflow=hidden;rotatable=0;points=[[0,0.5],[1,0.5]];portConstraint=eastwest;" parent="78961159f06e98e8-69" vertex="1">
          <mxGeometry y="156" width="300" height="26" as="geometry" />
        </mxCell>
        <mxCell id="78961159f06e98e8-77" value="" style="line;html=1;strokeWidth=1;fillColor=none;align=left;verticalAlign=middle;spacingTop=-1;spacingLeft=3;spacingRight=3;rotatable=0;labelPosition=right;points=[];portConstraint=eastwest;" parent="78961159f06e98e8-69" vertex="1">
          <mxGeometry y="182" width="300" height="8" as="geometry" />
        </mxCell>
        <mxCell id="78961159f06e98e8-78" value="syncWithSFObjects" style="text;html=1;strokeColor=none;fillColor=none;align=left;verticalAlign=top;spacingLeft=4;spacingRight=4;whiteSpace=wrap;overflow=hidden;rotatable=0;points=[[0,0.5],[1,0.5]];portConstraint=eastwest;" parent="78961159f06e98e8-69" vertex="1">
          <mxGeometry y="190" width="300" height="26" as="geometry" />
        </mxCell>
        <mxCell id="78961159f06e98e8-79" value="syncWithSlackEvent" style="text;html=1;strokeColor=none;fillColor=none;align=left;verticalAlign=top;spacingLeft=4;spacingRight=4;whiteSpace=wrap;overflow=hidden;rotatable=0;points=[[0,0.5],[1,0.5]];portConstraint=eastwest;" parent="78961159f06e98e8-69" vertex="1">
          <mxGeometry y="216" width="300" height="26" as="geometry" />
        </mxCell>
        <mxCell id="78961159f06e98e8-80" value="updateMulesoftForSlackUpdate" style="text;html=1;strokeColor=none;fillColor=none;align=left;verticalAlign=top;spacingLeft=4;spacingRight=4;whiteSpace=wrap;overflow=hidden;rotatable=0;points=[[0,0.5],[1,0.5]];portConstraint=eastwest;" parent="78961159f06e98e8-69" vertex="1">
          <mxGeometry y="242" width="300" height="26" as="geometry" />
        </mxCell>
        <mxCell id="78961159f06e98e8-81" value="updateMulesoftForSFUpdate" style="text;html=1;strokeColor=none;fillColor=none;align=left;verticalAlign=top;spacingLeft=4;spacingRight=4;whiteSpace=wrap;overflow=hidden;rotatable=0;points=[[0,0.5],[1,0.5]];portConstraint=eastwest;" parent="78961159f06e98e8-69" vertex="1">
          <mxGeometry y="268" width="300" height="26" as="geometry" />
        </mxCell>
        <mxCell id="78961159f06e98e8-121" style="edgeStyle=elbowEdgeStyle;html=1;labelBackgroundColor=none;startFill=0;startSize=8;endArrow=diamondThin;endFill=0;endSize=16;fontFamily=Verdana;fontSize=12;elbow=vertical;entryX=0;entryY=0.5;entryDx=0;entryDy=0;strokeWidth=3;" parent="1" source="78961159f06e98e8-17" target="78961159f06e98e8-34" edge="1">
          <mxGeometry relative="1" as="geometry">
            <mxPoint x="250" y="259.88235294117635" as="sourcePoint" />
            <mxPoint x="420" y="197" as="targetPoint" />
          </mxGeometry>
        </mxCell>
        <mxCell id="XjPOVrRppSDy4Sd76iX5-2" value="&lt;font style=&quot;font-size: 23px;&quot;&gt;1:N&lt;/font&gt;" style="edgeLabel;html=1;align=center;verticalAlign=middle;resizable=0;points=[];" parent="78961159f06e98e8-121" vertex="1" connectable="0">
          <mxGeometry x="0.2697" y="-1" relative="1" as="geometry">
            <mxPoint x="-84" y="-1" as="offset" />
          </mxGeometry>
        </mxCell>
        <mxCell id="XjPOVrRppSDy4Sd76iX5-3" style="html=1;labelBackgroundColor=none;startFill=0;startSize=8;endArrow=open;endFill=0;endSize=16;fontFamily=Verdana;fontSize=12;dashed=1;exitX=0.5;exitY=1;exitDx=0;exitDy=0;entryX=1;entryY=0.5;entryDx=0;entryDy=0;edgeStyle=orthogonalEdgeStyle;strokeWidth=3;" parent="1" source="78961159f06e98e8-30" target="78961159f06e98e8-75" edge="1">
          <mxGeometry relative="1" as="geometry">
            <mxPoint x="1040" y="440" as="sourcePoint" />
            <mxPoint x="900" y="560" as="targetPoint" />
          </mxGeometry>
        </mxCell>
        <mxCell id="qzICSzhQm5TW18asHH2M-1" style="edgeStyle=orthogonalEdgeStyle;rounded=0;orthogonalLoop=1;jettySize=auto;html=1;strokeColor=#cd1d1d;" edge="1" parent="1" source="78961159f06e98e8-32" target="78961159f06e98e8-21">
          <mxGeometry relative="1" as="geometry" />
        </mxCell>
        <mxCell id="qzICSzhQm5TW18asHH2M-3" style="edgeStyle=orthogonalEdgeStyle;rounded=0;orthogonalLoop=1;jettySize=auto;html=1;entryX=0;entryY=0.5;entryDx=0;entryDy=0;dashed=1;strokeWidth=3;" edge="1" parent="1" source="qzICSzhQm5TW18asHH2M-2" target="78961159f06e98e8-76">
          <mxGeometry relative="1" as="geometry" />
        </mxCell>
        <mxCell id="qzICSzhQm5TW18asHH2M-2" value="" style="shape=image;verticalLabelPosition=bottom;verticalAlign=top;imageAspect=0;aspect=fixed;image=data:image/png,iVBORw0KGgoAAAANSUhEUgAAAH8AAABqCAYAAACVpo47AAAAAXNSR0IArs4c6QAAAAlwSFlzAAAXEgAAFxIBZ5/SUgAAHXVJREFUeAHtnQmcVPWRx6vPmek5mBPkkBtFAS8Q1MRr1Rg08YommhijoOJiiEfWjclmV+InxpiNR9ZVCa4ESci6ksuYqDGJqBFU8FYQBUfkPoa5e2Z6+tpvvZ43/bp5Pc7BzLwe5v+Znu5+7/2v+lXVv6r+R4sMpoOWAi6n9XzhwoX+nVt3nhyKhtYtXbp0l9Pa19n2XHHFFWVer/d7rrjrOM0Tj8c3jB47egH9i3S2jN5+ztvbFXS1/HXr1klhQeG/e1ye8quuumolBPxTLBZb+8gjj1R3taz+eH7BVQsqml3NF8YkdqXE5dhoPJrrdrm1KYEdO3Y4StgcB35JSUk80hrJE7cc4RHP2Eg48hWXy1V5zdxrVseisZXhWPiNZcuWbe8PYDPViTR7t2zZMoX7FwYl+AXAHi8xKYzFY14YQMRRkCd74TjwtWlxV9zvEpc7Eovk8zU/HouXwgBTYYjLYYhdc66cs47rryJdrxQXF2+47777ajVfX6Zrr73WR5smRcPR0wH+TJVyt9tdGo1EAxFXxGO0RYEn8Ry8EPMnvjnnv+PAHzFiRHTrJ1tXQqLRXre3FJUvMVfME41FDUaAKcpcbtckCPr5eDQeqqut+5jh4W2+rw6Hw2thhsr7778/1BskXrBgQVFjY+NUt7hPjUViJyHZU6m3mDblwag5fE9IeRvoHrfHAD4u8SpP3PO89q032tXdMh2pkK688spipOgICHsuInMBxtIUPosyAlohta9xiXo8nhD3WxgW6lCxGwBnFZL498KSwrfvvffe5tQMXfs2Z86cQoA7DhY8GwY8hXom0rY82pIL2Cr9CRqaUk4DaI9wTw27t2DUJ2DKZ8nzIQZsn2uojnrrSPC1wZdcconH7/fnQ7Qy3s+AAS4B0JMZT/Oi0Sgf26md7B8XwSJCnmbAaeLGuzDCn/15/icfeuihyuSDn/5p7ty5E6nzfKo5l6ePpMz8NsCT2rK9CS7hfqJQl+ygGX/zRD1/DMVDr2Cw1jc0NDStWLHCUVKvjXUs+AlKGv9dMEJuAckdd093eVxfApRzUbXDeRek0fJoao9glDCgBGGWXW6P+ykAWbp46eJ3UzOkfrv66quPYjiZQ9nnkGcogOcjxfsBrrnUilfQAbuJ9qzFJnmytbH1OV++7xMs++DTTz/dK8NPaou7/y0bwG/vHUzg9/l8+UjTWF6zIfhFgHMMY6snRRuYOczegQ6quAlAd/LxD/je6i20iar5MAOMS0bxzAUAegjlBfieKMEy0piAw3RRPm9gGPoLbXgmFAq9Q5saJ0yY0Iz1z+Dv/GSSx/kttbQQ4rr3rNsTqPPXFed4c2ahDb7A7TPxCkapJAKGjrnJHGYvQR6AgtxIUxdtj8bFE4niYVhA149apg7tMIQOKxupb6U74v5r2BV+nSGphtxNixcvDicrzI5PJlmyo7U2rZw9e3YOVrTaBsMB/UTk90wwPglGOFQNLx0a2l/pxqJNeQq2CbiRT+LKLB9w8UWGnVVxd/yt5ubmfTU1NU1OV+s23Uu5lPXgW3rjZljIycvLC/Aa1traOg2GmAFDHA2YE3huKINzAMl1qxSnpzagI7zXkW8bLPMez7zG6+1IJPIh14K7d+9uBvBWrlkGgvSSsuf7/lTox7YTOJkGWDMAoCYQCDyHv17fzea4cRf9wWAwJzc3NwcNMATAR/AahuquAMgSxusCIPQzZiuQQe7twSDchirfwjNVeo12tGzdujX0/PPPdzkef92V142NeqL/xADki4fje3xeX2VYwpVLlixp6GafDng2R4BPkKYC4n+H3n0JUIogeozXO1jbv4EZnoBgO3rYc9dpp53mmTZtmgfDzIMke3C/3ISSjWJhkjgMEa2qqorgVER64Ja5cBGPoe2X0YNzYbrhWgHfo9ggzWigSvyDv3pzvMsXLVq02ai8H//1O/gEUUZgfT+MMj4FUAoYW40EE6ib1gj4m/n8NyT0CbTBa70VvesJBsq8Xpf39KhEz0ObfJZ2l6m3wNCR9CjQL1yPwORNMMZmfI2fwNTLe1JvT/P2K/iES3MIly5hBu9iwqOJ2Lc5mra1DGmJqZsGMYMwyJsQ7+/euPf54bHh7y1curClpwTobn4FHIk+nrafCWOeDOjjaGs+/ciljYlizb6YlVj6BEPXkm8hDHC/ebuv3/sVfMblr+OjL8Znzs1oQllaiMpsZShoxh1rhFA6ufMahH45T/Lejvgiu3rT3Zo/f34BYdoxaKcZtGMWUj2DusfShgCMmYvGSpnM4XrmRJ9gFHUfq70+72W0+9nMD/feHQtpe6+S9JKRGNe8efPywq3h5yDALFR7+iP2383WqgrVYcHjbqEsjelXoUY3UdYGPPj3XF7XR/jfO/Hpq8rKypq6soBCtRFjf2FRbtFQwrMjUdWTqWMqUE0C8PEwayHfcwE8px1wbW26lNv3IHmVvujED31/oThYPPveFT2bg0gW3PlPJjk7n+MAPKnToS0tLTO8Hu9KDKGcLhNO22BpOcAo90QYHtQNawWYMEDVc30v4O2h/Dqs7mpsizqYJAR4+oqhsn0879OpYxinhFexvnNvGNdLyRcAID9l+bnmQ0PpRA632lJXATfzme9aVFxa6cupTPq8Yl7uq/dkzLqvaqQegiR+pPIsCJlDUKZ7yUJ4xk41rPwMB8k587gMxUYYB2gazYuhKTR8q7WpZa+59YWjF3fhhum7qm03xpgG670wixEPgDG4nEgwU9cl3Mxs904LaIsfOlzA7YMDfFRyDpMnX0sJwdoRp7PXLIzQnkXVQWJCJsHgds+0P5z2AYzREgcW6LQqzK8GDeJyKd9vNa/11Xu/SD7jnAdJm2BV3Qe8w10B+4BX3oUCaSeSH+hCjgP2aNIPPWBFdrIgtY6zBaBOdinbHus/8AeB73de6T/w+73rgw0YBP8g5oFB8AfBP4gpcBB3fVDyB8E/iClwEHd9UPIHwT+IKXAQdz0Z3l22eZz4c65nzVGAecZeJclvWqpzv/TiPb1aRzYVHnbnFMjybQ/2dZt1UjGRfr39LskNzJdQS68PBW62Ww2r+6TX6zG75vT3GPP6u4vH9K7E2RAhKfnxeIW0thZIa+/vMNJe7iwYadOcg/hSH9A9nbpW8Im2a8B9MOieTqSB+n1Q9Q5UZDvRr0HwO0GkgfrIIPgDFdlO9GsQ/E4QaaA+Mgj+QEW2E/1KWvudeDirHzGcGP5ZvWmNcujLdHDMd+M6//R9AKeBDb6CaWzCFSngcLfRAb9MKPDI+CK/DM1xS47HJUU+t9SHY8LebNkXisnWYES2NEZlS3NEdjax+y5KIQOUGQYm+Ao4El6U45JZ5bnyuRF5MrMiTyYVecXndokXMD2865jHG6d4JIRfcY7wRRmhvjUu79WGZM3ekLywKyRv1IQkxFYQI5N140YWa4aBBT7YKJIj8j3y5bEFctHogBxe7JcAaDdF4rKhthVAW6WyISJbmyJs7YlLA9cLfcoQLilHGxya75VxBV6ZVuqXM4YHjNeNU2LyVnVIntzSLL/bEpSdQfaBKNeoRsjiNHDAB/Riv1u+PqFI5hxWIOMAUdOLu1sArUler26V7ajxEGCH26RbeUX3ZuhpLYqjBwZQraDaIZ+ydIiYUZYjZ4/MkxPL8wwtcs3hhfLYR42yjNcOyiOTVpOVKdnyX219RLy+ORLq0ZmFfU8EA8G4nDosV/7t6GI5vjwHcEUe/7hRVmwOyrrasAQBHC3OHk7+6fOdSVBG2Yf91hLAXpgyxCcXjM6Xi8cGpMDnkQ/qw3Lfe3Wy4pOghHWYycKhILvBh+gcaS03HFEkN08dguR7ZAWgP7ihXtbXRqQxqoZcG9LJnnYG+sQzZl6+qUYoQMrHFXrlGxML5YoJBYbj8KetTfLvb9YYhqIxFHS+9H5/MrGnXJtx0c3ni9tzrESTGxP7vXUdNQDVPTTHI3fPLJV5k4dgqUflljXV8rMNDVLZGJEm7htenYLeHeC1bjMv7xQnLRS4JxSXl3e1yAsYghNhhNmjAnL6IbnycUPYsCWySQNkJ/ggMSrglYc/WyHnYdQ9v6tZ5q/eJy8wvjdgxPUYdDuma2MEVQbKBNtxCZ/d3iIR6juP4eDzMMEWrq2vYZd4lgwB2RfhQ9WPxphbenK5nIUL9+vKBpm3ap+8WxeWFkXGlFb9rOJ6oJK1POpQr29nS1T+k3F//stVGIkii04sl2sPKzyw9R6o9tuUk13gQ/ByrPD7TyiTU4blyQOM7besrZUdgKA+ert6B/QijLQL0Ap4bz1PMNxEYgTnjspLGIyGgZeor56KV3zcJJe/sFfqWqPy4xml8jXsgUSDel51b5ZwIEjTm+1Llg24evLCj6eX4XoF5JGN9XL7WzVS04oOtko7YJyG5f/YyUPl4c9UyNn46j3SANTrwx/8wTEl8gvKfHBWKS4gfoCpVai7GWZ4HjtgLkNPHe25Bwb4HO6h0xkge8CH2HMnF8plE/IZa5vktjfqpFb9N7MHxse4XHd4kSw7ZaicwZCgQZubpxZxtgoIcb9biXq/PCEgF6JFKihPLf3HTx8mZw3PTYKrwwCFr4IBvvnKPrSNS+6dWSbjMQjN8HK36u7lTNlh8AHArIocY0zdTcz96lVV8okGWCzAq3q/Hen8zlHFMiyPH2NRbUAagWG4AZ/8PYI8XXbFkOgx2BeLTqqQEZSpSQNAQ3M9ctohAfm4MSwfYGsYBh71qaH5CdHDmkhMLkf1jyLvHz9pSpzy3NYeoxCH/DPJ55Dm2DQDic2D4D84tliKQfi7b9TKh/jw1uRCrL9/9BBZcOQQKcEmsCb9evORRUberkq/h7o1cHR4kZ7blEzKWKOJ/j2AgafRv3b1znU9EerRDxtl+UcN8sVDA2gNfh3GHCKSRTjiUyqlHNGktEZAuEvGF8jpjN2/3NQoTxOqjWmrTUni/lxU8Q1HFEuBRmJs0jGEaL82oYtWOLbDObhvX6VuU4tYi9aaRgQ88t+zyuU4oortAHMjSHDpjnfqZFdzVBaijcY6VP07G3wkT2fmbjyiEMNO3ap6zlGD6ibGAD8dwi88tsSYnLGCY/2sPLGAMoYzBHRK+qlDh47bjiuR/AwMpeVrM8bjBdw5vdiYGm4vG031UV1E7llfJ2MxDudMgvH0TDCHJWeDD7jnjy5ghi1HHkGVfsTYbR3n1ZC7DbWsEvhpaWKhT65lUqZdQjvKwFh/y7QhcnRJ8mS3TI8rAXX8v/awopSyVTst/ygo72JrXAX4Y3XoUBfRQcnR4Otii2smFUgD7tMvNjWkCg+MccHYfFwq/TWUT0+quq8GhElM0HQIAur+DCz5uZOKjHj+p5eMCwoVvzWlUCZYy6a+GkKBiz5okJEw58W0NbUDnSm5d59xLviAewwqfWZFrjyzs4nYOUaeiTIClM8c/HVE09TK72zSef7rJ6uEZshBuaW5brn92FImiczKMjybdlnDzV/HPrACrNPFT2wLGqHgy8YFmCbmgoOEvwukS+ttb38FoPMOzTPAfbwSdwlmSIIfl1MOYX4dxuhK0s5+FRfsWAxAW/WPWv4WHsPxuJVdTcoqGtkbBoO1A0yFuxtj8tT2ZmPoms6qog61Tlcr7eHzzgQfnHOQbF1+tRO/fnUVawyskyXcv4jJlDSvrp0U61mt836dOl37Jw383DClqN10aH8C5joJZppPkIiqMyadPKrVqKJN0hVAJxN2tjIWPwMpf97abJSps38ZtY5Neb19yZngQ7CxBT45Yohf1la1yt4m0DZbinSWE2Q55ZDM0rn4wwa57c06Yy1eOgEV1wvG5JNfgaBcTbwVgfjtxxVTtllR4pb1/xamir/JJM6Le+yP+Ve7Yjbxfyuf6pc3q1tkL/MPCr5PH2qr1lp2f3zO3NP+aI1ZJ4J1ZLHPcLNe3RMSDkM27xiEm4wVPh7r3S7tgch/2tbM0q2gPMW7XRqC+/btKcWSY6JE+fMOH2JIbQdCL/e+Xy/v7w0zkRNs55v08meW+XE7IavZZD7uaI6hicIylXaXB5xDcue0xEpFCDdZLWfSe6q+rYjAGFOHeDNa4rradjPGYQuA/vDtWtnLIg+7dObIXJmNTSGocA3S3MhYn2kY0fzP7WyRZRsbhUPX5R+7Q8biEbtyx8KUwzSe0I4+NiDLiXQYKmXIGZGn/TI5w66EvrvmTPAB+wgA1oWWlayhTwEf2hzJitxM6SXAT6y1R91WheRuAkN2SZd/3TRliFTghv0HsYLhHUikztTdxgxiNYEmbcs25hXeqdGpnP2TBoUm0/b0sV1D0srDuijU6hHsX0LfXXEo+C45BAlpRmJqUeMp6NPi0dgDmdImllMZVIbS/JqR/A/j/1qYwC7NxPpezGqgs3Wctnug7drDSLwOP+YETpTw7cYGe4NSyxmWs38kcU+bBlJ7xSnJkeArAXXY1NUyxFxSsNd7mejXiqbYpbN9JpK869q+O96tlZBRUCrZtRxdg6daIFNSdf1fhGm1Le3l8rnGiDPb5ypLb6C2o81D2O+efRF9ctV54ENYHXvV+tZtVC3Ww6G458VazjSBo/gY8QAr6ZD+Z9hs8dhm/U2m/VNHQSLllzuZoNmmQ08apfjplf0La7vCIuL9EnxpJDX2nZLSuuSAZkEcXaOBVyWFXjeMYGki99QO0A0zdsmPBBcq51hxIQ8/qCM/eadetrHAsivpGRaN/Jb5eONHXNIyWqtIu2UMV+nXnPjdQlnnNE/nPxRksN/fqsfar81gwatQBTRTekL6ddHFz3DVOptqqEO9hSYWZrSre0vmwg5m+/ZrH/3R4JKmvUzzOiXZUMoBTQN4jewVMPAXGf6XRc74qON4pjRcx1vL48ZzcEWU1xJmBl9Sw60TaRFG3ut71c1UlkpLaJjR+Zk9Do01pDNMadtYUM1O4PR7aaX32Vdngk/3N9VHDKkfXwiY0MuaPmCuPFOawPy6bQJDddXueEelOZ07UnPoZs4H1MjTy+nYk1Xd+InaLpvUiGW4ScestHyH0S6ttVLHrLR7NsX0ySVngg9x3q9PuFKHFRHGtWJFi99kjlz349mlmUzaGCFUu5tI8UomWZazpStT0uHmRxh5O5qowJY6caKLflbn2LublY2txjo+K8JuNMVkYhN1SP32oLKUM9C37V4mwvTZdQW/higd5vYJFX5xpbTSJRthjF0MC3bpSEKoY1T61XBIT5Srxt9P363jAAb7/E+y9+4JNl/qdKxtQnDPGJGbcYXPW/vC0qR+odlm6htGAGlaiU/Wsxhlr273Me/ZVtB3FzPoyL5rgG1NSKgGa3Qn7AlMr+rCzRp1ARQQCLcbqVzF2H3puP2bX8az5+G73wPAxjbb9AqQwk2Ef299o4aFILkpMXq17R5i8UWT+ng8Z5fycEG/PMZ+AUkUoH8P8yTcwLb8lDkVqa/AFnmUNYghrcQh/t7+1LPrcV9fg24a3VtJPP1b7MDVbdfPoq5N4ysGkf+PyZVL2C6te+qtSb99g3n1X7LyZ6/JMNYH+Az55fdM/PyFqVZTP2g+/ax7/cx6+JqauHcOK3KMefnUO8a3ddgKum8whXEobnbbaqO/7bSfaLIpqk8uOUQB2fRVpUhX6nLrK+NYIWOipI8CuM6rb8gwZ6+q/5vE7VPE2loFSKtBXo0U6hp7fZmfI1pRKj8lctIeXeVzC1vBMwWGlmwMSp1uGDTz81HnDi6ESXWNwRozRGxtSz9+di74qF2Nyb+5LyTnsKhDN0C0MwCtrmXsfGBDY/slKw3VBb+eRRmXjmfdXCbLXgGye1kLsnzW0ztuYRpYVwvbJW3rr1DrKQEhjEcNH4/GPfjN5ibjnB+njPfaB+eCDzDNmPQP45sPQ3qumJi6+VENssdQ/WuZxbNLOvbffXwZR7QU8uvIIAcQ3U6o+6vYG3A9mz/sYjs6RP0IG8OI3ytDaaK6AuyD+awY1rjE/+Jh8IPPiXsO+e9c8JVAqPffMja/j8qchySP0g2SJv1ouUbh7mCLtBLfLumS7p9yeMOiE8rlsyzRAouuJxjn88z6/XA6ewPskKfE+4gcPoOh167utRaY7SIOhToO13MZS7g3aWwizT7pemMObA5ng68Ao97vW9+A2vfIv7KWPkWCIeZfsAvuXp85bKvbty5Ha/zilHJD/dq6gB3RFKPjfNYLHtK2Vy/90T9sDcrdSL16cO3gwzAjUfXfm1Ysurfw5x/UJ6bwu8N86RUewO/OBp+OGuq9MigvsgNWd76ciY9t3RunM6v3Iv1PbUPyMqQ8XCt1w3ZrWDijA58hM+Wv3tvSjqv1qWfwQG56pVr2acTJQknV7reyQET39N+1rk4qiVZa71vL6M/Plib3ZzM6qBtpaeBnWW7j0CONvt01o8w4K69dA9CD6nBUblhbzWGJ9gsrtfTXWHsXtG7p7qDKlFsYni/uDDHXAONY0p9htutfadstbLmujKmHNV2FttFnHsUD0HkFJybng29QzSUv4yb9kEUZR3E44l3Hl0q+BkrMoR71r9I1b3WVcUiCHaFXIb0pC0HtHrK7BoX0wMZXLauBllc2ynUcxPAxa/KNJpjgAvyprNC9k8MZdpHn1teqpQHGtFUbdnX18bXsAB/iakR88fsNspwzePSghNunl4oRXW9jAB1yNxK5m/vSXnmU7dHW1AwohlfQzd7G0DhPYdDVsxrn+2igm9bUyDY0gWG9W4DXzR4PnlRurAy68bUaIpTOM/KsdElOTTn9KDaIrOsn1zDNOpU4+cWsvc/F+l5FsAdsDenSN85cNOyDIIGbo9ngmcczejTbnYy9xkoqEywrFT71s8uwF1YyrPyW83c0KJQizXgbCvySk8tlbL5PFqzZJ3/ErzdmD7pV36c26IA8kD3ga3chZCOE1uXZMwi26ImY5Vjhq3c3J9boaTyeP5X0N2GSl1D1GlPfiJv1OKB12+iiTJ2M06PWWIKfBF65Da3wRTTRIiR+ZMDHnME+Wb6pSQzrg3xOTs6M7XdAMaW3SvI1q/bKfbPKjJ23I/K88t3X9yW2cHvQ7RC9AVBeYn39+rp9xnpAzdeTpKO7sZzQBJTydbPoAg6AvJnInw4B/4wB+AckXg9oStEMPam4F/Nml+QrISC+AqmHMal1X5HnZoIn3ziAaTcrd3Um0HgALQA+rPdj+TfPdtXDs6W5Aq/A8jcTzaOHLl1B5E/P5lnwcrXomr9mbZzJILaFOOdi9oGvtGtjAN21/Q/G/H3M0nxxVL58ATtAD2HQQ5F2m64ZnoDi0eOknMSfHrn6L0wa/RiPY2pJjjyG5f9t3My3WGCScmpIjyvs/QKyTu23k8RggDhLs+JE0BrlbXbQKCi6TVqPQn0cUJYTHHqb41DVWjfG+66EV5Vj2qTcj9E4FePxUvbYX0zItgI74wNCzje9uk+e3cGuXYI8+ni2SLxJw6SCytYj17UnUF7j9iUcxHzhoblyDUek6I8sNAKKTv0+jZv2KkZiJQab/sBCuypI9j55TctjyCjmLKCJWO6fGZojZzEfP50NmLqgVFcR6cFQv2MvgPry2Sbt2j0zJbufzeBrb1T06E0A6VYP4GzCwBfjDZw4LHH+vnoA+rMpumfuQ1YJ7WFY0EOeNDKr8aISVtcOYR5gjP4Gj24Ph3l0YiiXm+rZrd7TbKwvWMlPrlSRV5f4GSt2khQ0aZo178mmZzv4JskN/Zs4u09/VOkoFnaciA/+GWb1phAfKEU7aJhYFYC+zKReojKB/tyK3tcNHrqKVyOLa1hToBFE/dGGZh1CNCUpl/iehf+zd8zPROw2UBSkZlbV6ITQGly+n/sajLF6JFrhUKRbJV3X0useD8VTl3XrwsvtqHI9yFnXCeqwoYtIdcZOJ4aMNABAN0k38MA3e9YGki6k1Z9BaWBwruK1EVfQu9sl6ua0xYSMEUMZIEYeBTmCX5jykyxa1gAC3STRwAXf7KEFNB2jdYwPG3CbD9i8mytuLHltnsr6SwMf/HSIBjig6d3t6Hs357k6KnLwXrZQYBD8bEGqF9o5CH4vEDVbihwEP1uQ6oV2DoLfC0TNliL/HyOEvS6Nh8GPAAAAAElFTkSuQmCC;" vertex="1" parent="1">
          <mxGeometry x="39" y="663" width="127" height="106" as="geometry" />
        </mxCell>
      </root>
    </mxGraphModel>
  </diagram>
</mxfile>
